<svg width="128" height="128" viewBox="0 0 128 128" fill="none" xmlns="http://www.w3.org/2000/svg">
<rect width="128" height="128" fill="white"/>
<g clip-path="url(#clip0_48_2)">
<path fill-rule="evenodd" clip-rule="evenodd" d="M77.0531 17.3937L76.9313 17.3236C69.239 12.8935 59.761 12.8935 52.0688 17.3236L30.1313 29.9574C22.4388 34.3875 17.7 42.5746 17.7 51.4347V76.7025C17.7 85.5624 22.4388 93.7498 30.1313 98.1798L52.0688 110.814C59.761 115.244 69.239 115.244 76.9313 110.814L98.8688 98.1798C106.561 93.7498 111.3 85.5624 111.3 76.7025V51.4347C111.3 45.2216 108.97 39.3394 104.924 34.8516C108.136 32.3889 110.469 28.8427 111.374 24.7613C118.701 31.5765 123 41.2004 123 51.4347V76.7025C123 89.7322 116.031 101.772 104.719 108.287L82.7813 120.92C71.4688 127.435 57.5312 127.435 46.2188 120.92L24.2813 108.287C12.9688 101.772 6 89.7322 6 76.7025V51.4347C6 38.4052 12.9688 26.3652 24.2813 19.8503L46.2188 7.21658C57.5312 0.701737 71.4688 0.701727 82.7813 7.21658L83.1249 7.41454C80.0756 9.90568 77.8824 13.4007 77.0531 17.3937Z" fill="#00B1FD"/>
<path d="M94.2375 32.6353C100.699 32.6353 105.937 27.4102 105.937 20.9647C105.937 14.5192 100.699 9.29413 94.2375 9.29413C87.7757 9.29413 82.5375 14.5192 82.5375 20.9647C82.5375 27.4102 87.7757 32.6353 94.2375 32.6353Z" fill="#00B1FD"/>
<path d="M41.1 64.2432C41.1 51.3522 51.5766 40.902 64.5 40.902C77.4235 40.902 87.9 51.3522 87.9 64.2432C87.9 77.1341 77.4235 87.5843 64.5 87.5843C51.5766 87.5843 41.1 77.1341 41.1 64.2432Z" fill="#00B1FD"/>
</g>
<defs>
<clipPath id="clip0_48_2">
<rect width="117" height="124" fill="white" transform="translate(6 2)"/>
</clipPath>
</defs>
</svg>
